# xmcd
#
# Track frame offsets:
#	150
#	19402
#	33550
#	45262
#	57222
#	69970
#	83137
#	94487
#	110217
#	121150
#	136512
#	154325
#	172575
#	186892
#	201227
#	219335
#	233967
#	248620
#	267577
#	287310
#
# Disc length: 3984
#
# Revision: 2
# Processed by: cddbd v1.5.1PL0 Copyright (c) Steve Scherf et al.
# Submitted via: EasyCDDAExtractor 6.0.0.1
# Normalized: r1:DSETVAR1
#
DISCID=120f8e14
DTITLE=Various Artist - CDX Volume 76 February 1994
DYEAR=1900
DGENRE=
TTITLE0=Linda Ronstadt - A River for Him
TTITLE1=Doug Stone - Addicted to a Dollar
TTITLE2=Willie Nelson - Afraid
TTITLE3=Jesse Hunter - Born Ready
TTITLE4=Gene Watson - Glass Hearts
TTITLE5=Shenandoah - If Bubba Can Dance
TTITLE6=Tracy Lawrence - If the Good Die Young
TTITLE7=Randy Huston - Let There Be One Cowboy Left
TTITLE8=George Jones - Never Bit a Bullet Like This
TTITLE9=Ricky Lynn Gregg - No Place Left to Go
TTITLE10=Billy Dean - Once in a While
TTITLE11=Sawyer Brown - Outskirts of Town
TTITLE12=Wynonna - Rock Bottom
TTITLE13=Rhonda Vincent - What Else Could I Do
TTITLE14=Clay Walker - Where Do I Fit in the Picture
TTITLE15=Marvell - Only Country Music
TTITLE16=Ralph Stanley - Miners Prayet
TTITLE17=Bruce Hayes - He Doesn't Live Here Anymore
TTITLE18=Terri Lynn - He's the One on the White Horse
TTITLE19=White River - The Wrong Spot Lot
EXTD=
EXTT0=
EXTT1=
EXTT2=
EXTT3=
EXTT4=
EXTT5=
EXTT6=
EXTT7=
EXTT8=
EXTT9=
EXTT10=
EXTT11=
EXTT12=
EXTT13=
EXTT14=
EXTT15=
EXTT16=
EXTT17=
EXTT18=
EXTT19=
PLAYORDER=
